<?xml version="1.0" encoding="UTF-8"?>
<!DOCTYPE svg PUBLIC "-//W3C//DTD SVG 1.1//EN" "http://www.w3.org/Graphics/SVG/1.1/DTD/svg11.dtd">
<svg xmlns="http://www.w3.org/2000/svg" version="1.1" width="296px" height="296px" style="shape-rendering:geometricPrecision; text-rendering:geometricPrecision; image-rendering:optimizeQuality; fill-rule:evenodd; clip-rule:evenodd" xmlns:xlink="http://www.w3.org/1999/xlink">
<g><path style="opacity:0.996" fill="#030303" d="M 111.5,-0.5 C 130.5,-0.5 149.5,-0.5 168.5,-0.5C 184.282,2.8713 199.616,7.8713 214.5,14.5C 218.478,18.1621 223.145,20.8287 228.5,22.5C 232.612,23.7219 236.279,25.7219 239.5,28.5C 239.414,29.4959 239.748,30.3292 240.5,31C 246.375,34.7412 252.042,38.5745 257.5,42.5C 256.589,45.9137 255.922,49.4137 255.5,53C 256.12,57.2009 256.787,61.3676 257.5,65.5C 257.34,67.1992 257.506,68.8659 258,70.5C 258.417,71.756 259.25,72.4226 260.5,72.5C 268.174,95.1044 268.174,117.771 260.5,140.5C 259.113,142.489 259.447,144.322 261.5,146C 265.191,146.836 268.524,148.336 271.5,150.5C 271.427,152.027 272.094,153.027 273.5,153.5C 274.268,154.263 274.768,155.263 275,156.5C 276.543,170.619 274.043,183.952 267.5,196.5C 266.094,196.973 265.427,197.973 265.5,199.5C 263.957,204.024 261.623,208.024 258.5,211.5C 253.751,215.593 248.751,219.26 243.5,222.5C 240.167,222.5 236.833,222.5 233.5,222.5C 233.53,221.503 233.03,220.836 232,220.5C 230.405,221.356 229.572,222.689 229.5,224.5C 228.128,225.888 227.128,227.555 226.5,229.5C 227.1,231.468 228.433,232.468 230.5,232.5C 230.833,232.5 231.167,232.5 231.5,232.5C 231.738,234.404 232.738,235.738 234.5,236.5C 234.554,238.632 235.554,239.965 237.5,240.5C 237.5,241.167 237.5,241.833 237.5,242.5C 236.167,245.833 236.167,249.167 237.5,252.5C 237.5,253.167 237.5,253.833 237.5,254.5C 235.259,255.3 234.259,256.966 234.5,259.5C 234.672,260.492 234.338,261.158 233.5,261.5C 232.094,261.973 231.427,262.973 231.5,264.5C 224.295,262.942 220.961,265.775 221.5,273C 221.713,277.065 222.713,280.898 224.5,284.5C 222.759,288.317 220.759,291.983 218.5,295.5C 157.833,295.5 97.1667,295.5 36.5,295.5C 36.0843,292.594 35.4176,289.761 34.5,287C 34.3912,284.288 35.3912,282.122 37.5,280.5C 39.3841,280.288 40.7174,279.288 41.5,277.5C 40.5585,277.511 39.8919,277.011 39.5,276C 40.0749,273.257 41.7415,271.757 44.5,271.5C 45.0431,271.44 45.3764,271.107 45.5,270.5C 42.3052,269.2 39.3052,269.533 36.5,271.5C 35.2867,271.253 34.62,270.586 34.5,269.5C 34.6509,265.686 36.6509,264.019 40.5,264.5C 40.5,263.5 40.5,262.5 40.5,261.5C 40.5,261.167 40.5,260.833 40.5,260.5C 38.963,257.398 36.963,254.732 34.5,252.5C 32.8372,250.562 32.1706,248.228 32.5,245.5C 37.263,246.813 41.9296,246.479 46.5,244.5C 51.3571,241.809 55.0237,237.976 57.5,233C 54.6141,227.562 52.2808,221.895 50.5,216C 50.1639,214.97 49.4972,214.47 48.5,214.5C 48.5,213.833 48.5,213.167 48.5,212.5C 49.3382,212.158 49.6716,211.492 49.5,210.5C 50.4511,212.118 51.7844,213.451 53.5,214.5C 56.5581,211.12 59.8914,207.954 63.5,205C 69.6641,201.752 75.6641,198.252 81.5,194.5C 86.1471,195.779 90.8138,195.779 95.5,194.5C 103.122,191.055 110.622,187.389 118,183.5C 118.667,182.167 118.667,180.833 118,179.5C 105.559,165.386 100.393,149.052 102.5,130.5C 99.1414,123.892 95.4747,123.892 91.5,130.5C 90.6753,144.773 86.8419,158.44 80,171.5C 78.2636,176.044 76.9303,180.71 76,185.5C 74.9505,184.483 73.7839,184.316 72.5,185C 70.0527,187.903 67.386,190.57 64.5,193C 63.2411,193.982 61.9078,194.315 60.5,194C 67.6634,188.846 73.3301,182.512 77.5,175C 77.4301,174.235 77.0967,173.735 76.5,173.5C 76.0825,172.778 75.4158,172.278 74.5,172C 75.9578,169.54 77.7911,167.373 80,165.5C 81.3626,161.239 81.6959,156.905 81,152.5C 76.2029,147.865 73.5362,148.865 73,155.5C 72.7286,160.53 72.2286,165.53 71.5,170.5C 71.9424,171.739 72.6091,172.739 73.5,173.5C 66.5699,175.464 59.5699,175.797 52.5,174.5C 50.9623,174.453 49.9623,175.12 49.5,176.5C 49.1566,186.045 48.1566,195.378 46.5,204.5C 45.5289,195.584 45.1956,186.584 45.5,177.5C 45.6495,176.448 45.4828,175.448 45,174.5C 42.2356,171.876 39.7356,169.209 37.5,166.5C 33.0133,159.55 30.1799,151.883 29,143.5C 28.5005,137.175 28.3338,130.842 28.5,124.5C 29.9063,124.027 30.573,123.027 30.5,121.5C 32.984,119.2 34.984,116.533 36.5,113.5C 40.7496,112.728 45.0829,112.228 49.5,112C 50,111.5 50.5,111 51,110.5C 51.5332,100.213 53.3665,90.2128 56.5,80.5C 57.4959,80.5858 58.3292,80.2524 59,79.5C 61.4831,72.5276 64.9831,66.1943 69.5,60.5C 69.5,59.8333 69.8333,59.5 70.5,59.5C 71.9063,59.0269 72.573,58.0269 72.5,56.5C 71.8563,46.8231 71.023,37.1564 70,27.5C 69.3333,26.1667 68.3333,25.1667 67,24.5C 66.501,20.1794 66.3343,15.8461 66.5,11.5C 81.3185,6.3805 96.3185,2.3805 111.5,-0.5 Z"/></g>
<g><path style="opacity:1" fill="#5a5a5a" d="M 135.5,11.5 C 140.051,11.0527 144.384,11.7194 148.5,13.5C 142.012,19.9518 136.346,27.1185 131.5,35C 126.508,35.9358 123.841,33.7691 123.5,28.5C 124.42,20.5914 128.42,14.9247 135.5,11.5 Z"/></g>
<g><path style="opacity:0.51" fill="#404040" d="M 214.5,14.5 C 219.5,16.6643 224.167,19.331 228.5,22.5C 223.145,20.8287 218.478,18.1621 214.5,14.5 Z"/></g>
<g><path style="opacity:1" fill="#545454" d="M 113.5,16.5 C 115.199,16.3398 116.866,16.5065 118.5,17C 111.543,21.788 106.21,27.9546 102.5,35.5C 101.635,36.5827 100.635,36.7494 99.5,36C 96.7785,31.5202 95.9451,26.6869 97,21.5C 98.1711,20.1068 99.6711,19.2735 101.5,19C 105.796,18.9244 109.796,18.0911 113.5,16.5 Z"/></g>
<g><path style="opacity:1" fill="#5f5f5f" d="M 169.5,23.5 C 171.924,23.1924 174.257,23.5258 176.5,24.5C 168.245,27.9189 160.912,32.7523 154.5,39C 151.333,39.8333 150.167,38.6667 151,35.5C 153.128,32.3699 155.628,29.5366 158.5,27C 162.161,25.4075 165.828,24.2408 169.5,23.5 Z"/></g>
<g><path style="opacity:1" fill="#4d4d4d" d="M 180.5,26.5 C 181.978,26.238 183.311,26.5713 184.5,27.5C 176.919,31.4189 170.586,36.7523 165.5,43.5C 164.432,41.8125 164.599,40.1459 166,38.5C 170.259,33.6458 175.092,29.6458 180.5,26.5 Z"/></g>
<g><path style="opacity:0.149" fill="#626262" d="M 239.5,28.5 C 246.673,31.7421 252.673,36.4088 257.5,42.5C 252.042,38.5745 246.375,34.7412 240.5,31C 239.748,30.3292 239.414,29.4959 239.5,28.5 Z"/></g>
<g><path style="opacity:1" fill="#4e4e4e" d="M 208.5,31.5 C 210.857,31.3367 213.19,31.5034 215.5,32C 202.419,34.2892 191.253,40.1225 182,49.5C 181.685,48.0922 182.018,46.7589 183,45.5C 190.337,38.5842 198.837,33.9175 208.5,31.5 Z"/></g>
<g><path style="opacity:1" fill="#4c4c4c" d="M 206.5,38.5 C 208.288,38.2148 209.955,38.5481 211.5,39.5C 207.252,41.9922 202.752,43.9922 198,45.5C 197.5,45.1667 197,44.8333 196.5,44.5C 199.861,42.4887 203.194,40.4887 206.5,38.5 Z"/></g>
<g><path style="opacity:1" fill="#909090" d="M 108.5,45.5 C 135.229,42.9498 160.229,48.1165 183.5,61C 193.838,68.3405 196.671,77.8405 192,89.5C 189.258,95.3132 185.758,100.647 181.5,105.5C 190.947,112.33 199.78,119.997 208,128.5C 213.196,133.779 212.03,136.446 204.5,136.5C 199.865,136.425 195.531,135.258 191.5,133C 187.5,132.667 183.5,132.333 179.5,132C 171.026,126.437 161.693,123.104 151.5,122C 133.192,120.815 114.859,120.149 96.5,120C 95.3333,118.833 94.1667,117.667 93,116.5C 91.8829,118.124 90.3829,119.124 88.5,119.5C 78.4293,118.4 68.4293,116.9 58.5,115C 56.1191,113.491 55.1191,111.325 55.5,108.5C 56.7736,93.7266 61.2736,80.0599 69,67.5C 79.2696,54.7858 92.4362,47.4525 108.5,45.5 Z"/></g>
<g><path style="opacity:1" fill="#444444" d="M 218.5,46.5 C 220.199,46.3398 221.866,46.5065 223.5,47C 214.126,50.682 204.626,54.182 195,57.5C 194.5,57.1667 194,56.8333 193.5,56.5C 195.731,54.1141 198.397,52.2807 201.5,51C 207.413,49.9657 213.08,48.4657 218.5,46.5 Z"/></g>
<g><path style="opacity:0.482" fill="#989898" d="M 72.5,56.5 C 72.573,58.0269 71.9063,59.0269 70.5,59.5C 70.427,57.9731 71.0937,56.9731 72.5,56.5 Z"/></g>
<g><path style="opacity:1" fill="#4b4b4b" d="M 216.5,65.5 C 219.084,66.0483 220.084,67.715 219.5,70.5C 213.48,70.7609 207.48,70.9275 201.5,71C 202.685,69.647 204.019,68.4803 205.5,67.5C 209.313,66.8329 212.979,66.1663 216.5,65.5 Z"/></g>
<g><path style="opacity:0.59" fill="#616161" d="M 257.5,65.5 C 258.736,67.649 259.736,69.9823 260.5,72.5C 259.25,72.4226 258.417,71.756 258,70.5C 257.506,68.8659 257.34,67.1992 257.5,65.5 Z"/></g>
<g><path style="opacity:0.506" fill="#767676" d="M 69.5,60.5 C 64.9831,66.1943 61.4831,72.5276 59,79.5C 58.3292,80.2524 57.4959,80.5858 56.5,80.5C 58.3815,75.735 60.5482,71.0683 63,66.5C 64.5355,63.7063 66.7022,61.7063 69.5,60.5 Z"/></g>
<g><path style="opacity:1" fill="#505050" d="M 203.5,83.5 C 206.912,84.0132 210.245,84.8466 213.5,86C 214.406,87.6995 214.739,89.5328 214.5,91.5C 210.5,91.1667 206.5,90.8333 202.5,90.5C 202.993,88.1944 203.326,85.861 203.5,83.5 Z"/></g>
<g><path style="opacity:1" fill="#474747" d="M 195.5,97.5 C 200.722,99.2948 206.055,100.795 211.5,102C 212.517,103.049 212.684,104.216 212,105.5C 205.376,106.801 198.71,106.801 192,105.5C 191.5,105.167 191,104.833 190.5,104.5C 191.931,101.961 193.597,99.6279 195.5,97.5 Z"/></g>
<g><path style="opacity:0.345" fill="#a0a0a0" d="M 36.5,113.5 C 34.984,116.533 32.984,119.2 30.5,121.5C 31.5293,118.109 33.5293,115.443 36.5,113.5 Z"/></g>
<g><path style="opacity:0.31" fill="#949494" d="M 30.5,121.5 C 30.573,123.027 29.9063,124.027 28.5,124.5C 28.427,122.973 29.0937,121.973 30.5,121.5 Z"/></g>
<g><path style="opacity:1" fill="#8a8a8a" d="M 49.5,210.5 C 49.5,199.167 49.5,187.833 49.5,176.5C 49.9623,175.12 50.9623,174.453 52.5,174.5C 59.5699,175.797 66.5699,175.464 73.5,173.5C 74.5,173.5 75.5,173.5 76.5,173.5C 77.0967,173.735 77.4301,174.235 77.5,175C 73.3301,182.512 67.6634,188.846 60.5,194C 61.9078,194.315 63.2411,193.982 64.5,193C 67.386,190.57 70.0527,187.903 72.5,185C 73.7839,184.316 74.9505,184.483 76,185.5C 76.9303,180.71 78.2636,176.044 80,171.5C 86.8419,158.44 90.6753,144.773 91.5,130.5C 95.4747,123.892 99.1414,123.892 102.5,130.5C 100.393,149.052 105.559,165.386 118,179.5C 118.667,180.833 118.667,182.167 118,183.5C 110.622,187.389 103.122,191.055 95.5,194.5C 90.8138,195.779 86.1471,195.779 81.5,194.5C 75.6641,198.252 69.6641,201.752 63.5,205C 59.8914,207.954 56.5581,211.12 53.5,214.5C 51.7844,213.451 50.4511,212.118 49.5,210.5 Z"/></g>
<g><path style="opacity:1" fill="#a6a6a6" d="M 38.5,125.5 C 39.8124,130.015 39.8124,134.682 38.5,139.5C 37.2805,134.817 37.2805,130.15 38.5,125.5 Z"/></g>
<g><path style="opacity:1" fill="#909090" d="M 131.5,191.5 C 128.832,188.71 127.832,185.543 128.5,182C 142.137,184.004 155.137,182.004 167.5,176C 176.775,168.934 183.941,159.434 189,147.5C 190.167,146.333 191.333,145.167 192.5,144C 198.158,143.968 203.825,144.301 209.5,145C 210,145.5 210.5,146 211,146.5C 214.838,178.998 203.672,205.164 177.5,225C 171.7,229.161 165.7,229.495 159.5,226C 147.762,218.036 135.762,209.703 123.5,201C 118.657,199.136 113.657,197.803 108.5,197C 107.273,195.413 107.606,194.079 109.5,193C 115.132,192.373 120.299,190.54 125,187.5C 127.059,189.07 129.226,190.403 131.5,191.5 Z"/></g>
<g><path style="opacity:0.482" fill="#4e4e4e" d="M 260.5,140.5 C 260.33,141.822 260.663,142.989 261.5,144C 264.583,145.139 267.583,146.472 270.5,148C 271.252,148.671 271.586,149.504 271.5,150.5C 268.524,148.336 265.191,146.836 261.5,146C 259.447,144.322 259.113,142.489 260.5,140.5 Z"/></g>
<g><path style="opacity:1" fill="#909090" d="M 246.5,146.5 C 259.062,147.742 264.729,154.742 263.5,167.5C 262.52,184.604 255.853,199.104 243.5,211C 238.733,214.725 233.4,216.725 227.5,217C 226.101,215.938 225.101,214.605 224.5,213C 225.185,210.205 225.685,207.372 226,204.5C 229.704,202.523 233.204,200.189 236.5,197.5C 243.751,189.573 244.251,181.239 238,172.5C 237.333,171.167 237.333,169.833 238,168.5C 241.793,164.705 246.126,161.705 251,159.5C 252.605,160.101 253.938,161.101 255,162.5C 255.882,165.789 256.548,169.123 257,172.5C 258.458,155.592 252.124,151.592 238,160.5C 237.228,160.355 236.561,160.022 236,159.5C 237.371,153.611 240.871,149.278 246.5,146.5 Z"/></g>
<g><path style="opacity:1" fill="#232323" d="M 169.5,161.5 C 168.312,160.636 167.145,159.636 166,158.5C 163.219,158.869 160.552,158.869 158,158.5C 157.333,161.167 156.667,161.167 156,158.5C 152.828,160.803 149.828,160.47 147,157.5C 142.507,158.247 138.007,159.247 133.5,160.5C 131.247,159.215 129.081,158.215 127,157.5C 125.36,161.34 123.86,161.34 122.5,157.5C 121.306,160.619 119.806,160.952 118,158.5C 116.933,159.191 115.766,159.691 114.5,160C 116.991,160.626 116.991,161.459 114.5,162.5C 115.246,163.736 115.579,165.07 115.5,166.5C 108.303,156.708 105.636,145.708 107.5,133.5C 108.776,132.355 110.109,132.355 111.5,133.5C 112.487,140.23 113.653,146.897 115,153.5C 116.425,146.615 116.925,139.615 116.5,132.5C 127.484,131.751 138.484,131.417 149.5,131.5C 149.586,135.857 149.92,140.19 150.5,144.5C 152.451,144.773 153.951,144.107 155,142.5C 155.333,137.833 155.667,133.167 156,128.5C 158.925,126.982 161.258,127.649 163,130.5C 164.866,137.728 166.033,145.062 166.5,152.5C 167.5,152.5 168.5,152.5 169.5,152.5C 168.068,146.451 168.235,140.451 170,134.5C 170.915,135.328 171.581,136.328 172,137.5C 172.667,143.833 172.667,150.167 172,156.5C 171.243,158.315 170.41,159.981 169.5,161.5 Z"/></g>
<g><path style="opacity:0.4" fill="#727272" d="M 271.5,150.5 C 272.906,150.973 273.573,151.973 273.5,153.5C 272.094,153.027 271.427,152.027 271.5,150.5 Z"/></g>
<g><path style="opacity:1" fill="#1a1a1a" d="M 76.5,173.5 C 75.5,173.5 74.5,173.5 73.5,173.5C 72.6091,172.739 71.9424,171.739 71.5,170.5C 72.2286,165.53 72.7286,160.53 73,155.5C 73.5362,148.865 76.2029,147.865 81,152.5C 81.6959,156.905 81.3626,161.239 80,165.5C 77.7911,167.373 75.9578,169.54 74.5,172C 75.4158,172.278 76.0825,172.778 76.5,173.5 Z"/></g>
<g><path style="opacity:1" fill="#1f1f1f" d="M 60.5,149.5 C 63.3646,149.055 65.8646,149.722 68,151.5C 69.2104,158.112 69.7104,164.778 69.5,171.5C 63.1904,172.144 57.1904,171.144 51.5,168.5C 51.1667,167.833 50.8333,167.167 50.5,166.5C 54.1128,160.933 57.4461,155.266 60.5,149.5 Z"/></g>
<g><path style="opacity:1" fill="#313131" d="M 169.5,161.5 C 167.13,170.041 161.463,174.874 152.5,176C 143.78,176.839 135.113,176.505 126.5,175C 121.242,174.058 117.576,171.224 115.5,166.5C 115.579,165.07 115.246,163.736 114.5,162.5C 116.991,161.459 116.991,160.626 114.5,160C 115.766,159.691 116.933,159.191 118,158.5C 119.806,160.952 121.306,160.619 122.5,157.5C 123.86,161.34 125.36,161.34 127,157.5C 129.081,158.215 131.247,159.215 133.5,160.5C 138.007,159.247 142.507,158.247 147,157.5C 149.828,160.47 152.828,160.803 156,158.5C 156.667,161.167 157.333,161.167 158,158.5C 160.552,158.869 163.219,158.869 166,158.5C 167.145,159.636 168.312,160.636 169.5,161.5 Z"/></g>
<g><path style="opacity:0.12" fill="#9e9e9e" d="M 37.5,166.5 C 39.7356,169.209 42.2356,171.876 45,174.5C 45.4828,175.448 45.6495,176.448 45.5,177.5C 42.0918,174.417 39.4251,170.751 37.5,166.5 Z"/></g>
<g><path style="opacity:1" fill="#838383" d="M 233.5,174.5 C 238.713,178.4 239.88,183.4 237,189.5C 235.685,192.492 233.685,194.825 231,196.5C 228.52,195.878 228.02,194.544 229.5,192.5C 225.181,188.815 225.514,185.815 230.5,183.5C 229.781,180.077 230.781,177.077 233.5,174.5 Z"/></g>
<g><path style="opacity:0.993" fill="#010101" d="M 131.5,191.5 C 134.648,192.474 136.481,194.474 137,197.5C 134.96,195.63 133.127,193.63 131.5,191.5 Z"/></g>
<g><path style="opacity:0.176" fill="#949494" d="M 267.5,196.5 C 267.573,198.027 266.906,199.027 265.5,199.5C 265.427,197.973 266.094,196.973 267.5,196.5 Z"/></g>
<g><path style="opacity:0.861" fill="#2b2b2b" d="M 49.5,176.5 C 49.5,187.833 49.5,199.167 49.5,210.5C 49.6716,211.492 49.3382,212.158 48.5,212.5C 47.2318,210.095 46.5651,207.428 46.5,204.5C 48.1566,195.378 49.1566,186.045 49.5,176.5 Z"/></g>
<g><path style="opacity:1" fill="#909090" d="M 79.5,211.5 C 84.6981,211.454 89.6981,212.454 94.5,214.5C 99.767,212.902 105.1,212.069 110.5,212C 119.093,216.122 125.76,221.456 130.5,228C 129.07,233.096 126.403,237.429 122.5,241C 119.484,241.664 116.651,241.164 114,239.5C 109.027,240.298 104.027,240.964 99,241.5C 91.1675,240.263 83.3342,239.43 75.5,239C 84.3117,246.436 84.645,254.102 76.5,262C 71.5368,262.733 68.3701,260.567 67,255.5C 66.0229,250.266 66.6896,245.266 69,240.5C 71.7969,236.701 74.9636,233.201 78.5,230C 81.3754,228.935 84.3754,228.435 87.5,228.5C 95.5565,229.127 103.556,230.127 111.5,231.5C 111.286,229.856 111.62,228.356 112.5,227C 114.5,226.667 116.5,226.333 118.5,226C 117.377,224.956 116.044,224.29 114.5,224C 104.797,223.563 95.1303,224.063 85.5,225.5C 80.9472,224.704 76.6138,223.204 72.5,221C 71.4464,219.612 71.2797,218.112 72,216.5C 74.1699,214.177 76.6699,212.51 79.5,211.5 Z"/></g>
<g><path style="opacity:0.812" fill="#737373" d="M 48.5,214.5 C 49.4972,214.47 50.1639,214.97 50.5,216C 52.2808,221.895 54.6141,227.562 57.5,233C 55.0237,237.976 51.3571,241.809 46.5,244.5C 50.0626,241.104 53.0626,237.271 55.5,233C 52.1744,227.187 49.841,221.02 48.5,214.5 Z"/></g>
<g><path style="opacity:0.161" fill="#797879" d="M 258.5,211.5 C 255.456,217.853 250.456,221.52 243.5,222.5C 248.751,219.26 253.751,215.593 258.5,211.5 Z"/></g>
<g><path style="opacity:0.078" fill="#818181" d="M 233.5,222.5 C 231.938,222.733 230.605,223.4 229.5,224.5C 229.572,222.689 230.405,221.356 232,220.5C 233.03,220.836 233.53,221.503 233.5,222.5 Z"/></g>
<g><path style="opacity:1" fill="#909090" d="M 150.5,227.5 C 157.277,228.193 163.943,229.527 170.5,231.5C 176.471,227.695 180.638,229.028 183,235.5C 184.328,248.366 178.495,256.033 165.5,258.5C 153.83,255.653 147.83,248.153 147.5,236C 147.822,232.852 148.822,230.019 150.5,227.5 Z"/></g>
<g><path style="opacity:0.09" fill="#919191" d="M 229.5,224.5 C 229.617,226.484 228.95,228.15 227.5,229.5C 228.77,230.288 229.77,231.288 230.5,232.5C 228.433,232.468 227.1,231.468 226.5,229.5C 227.128,227.555 228.128,225.888 229.5,224.5 Z"/></g>
<g><path style="opacity:0.475" fill="#a5a5a5" d="M 231.5,232.5 C 233.262,233.262 234.262,234.596 234.5,236.5C 232.738,235.738 231.738,234.404 231.5,232.5 Z"/></g>
<g><path style="opacity:0.471" fill="#8c8c8c" d="M 234.5,236.5 C 236.446,237.035 237.446,238.368 237.5,240.5C 235.554,239.965 234.554,238.632 234.5,236.5 Z"/></g>
<g><path style="opacity:0.24" fill="#3b3b3b" d="M 237.5,242.5 C 238.833,245.833 238.833,249.167 237.5,252.5C 236.167,249.167 236.167,245.833 237.5,242.5 Z"/></g>
<g><path style="opacity:1" fill="#909091" d="M 102.5,249.5 C 104.857,249.337 107.19,249.503 109.5,250C 115.469,254.967 121.135,260.301 126.5,266C 140.067,272.097 139.234,275.93 124,277.5C 112.725,277.03 103.725,272.364 97,263.5C 95.0248,257.177 96.8582,252.51 102.5,249.5 Z"/></g>
<g><path style="opacity:0.012" fill="#9e9e9e" d="M 34.5,252.5 C 36.963,254.732 38.963,257.398 40.5,260.5C 37.3484,258.684 35.3484,256.017 34.5,252.5 Z"/></g>
<g><path style="opacity:0.027" fill="#888888" d="M 237.5,254.5 C 237.25,256.674 236.25,258.341 234.5,259.5C 234.259,256.966 235.259,255.3 237.5,254.5 Z"/></g>
<g><path style="opacity:0.106" fill="#787878" d="M 233.5,261.5 C 233.573,263.027 232.906,264.027 231.5,264.5C 231.427,262.973 232.094,261.973 233.5,261.5 Z"/></g>
<g><path style="opacity:0.1" fill="#838383" d="M 40.5,261.5 C 40.5,262.5 40.5,263.5 40.5,264.5C 36.6509,264.019 34.6509,265.686 34.5,269.5C 33.5489,268.081 33.2155,266.415 33.5,264.5C 36.1192,264.075 38.4525,263.075 40.5,261.5 Z"/></g>
<g><path style="opacity:0.8" fill="#414141" d="M 33.5,264.5 C 33.2155,266.415 33.5489,268.081 34.5,269.5C 34.62,270.586 35.2867,271.253 36.5,271.5C 39.3052,269.533 42.3052,269.2 45.5,270.5C 45.3764,271.107 45.0431,271.44 44.5,271.5C 42.5453,270.07 40.8786,270.403 39.5,272.5C 38.8333,272.5 38.5,272.833 38.5,273.5C 32.5309,273.531 29.5309,270.531 29.5,264.5C 30.8333,264.5 32.1667,264.5 33.5,264.5 Z"/></g>
<g><path style="opacity:0.414" fill="#818181" d="M 44.5,271.5 C 41.7415,271.757 40.0749,273.257 39.5,276C 39.8919,277.011 40.5585,277.511 41.5,277.5C 40.7174,279.288 39.3841,280.288 37.5,280.5C 38.2186,278.236 38.552,275.903 38.5,273.5C 39.1667,273.5 39.5,273.167 39.5,272.5C 40.8786,270.403 42.5453,270.07 44.5,271.5 Z"/></g>
</svg>
